<?xml version="1.0" encoding="UTF-8" standalone="no"?>
<svg
   xmlns:dc="http://purl.org/dc/elements/1.1/"
   xmlns:cc="http://creativecommons.org/ns#"
   xmlns:rdf="http://www.w3.org/1999/02/22-rdf-syntax-ns#"
   xmlns:svg="http://www.w3.org/2000/svg"
   xmlns="http://www.w3.org/2000/svg"
   xmlns:xlink="http://www.w3.org/1999/xlink"
   xmlns:sodipodi="http://sodipodi.sourceforge.net/DTD/sodipodi-0.dtd"
   xmlns:inkscape="http://www.inkscape.org/namespaces/inkscape"
   inkscape:version="1.0beta1 (76ce730, 2019-10-19)"
   sodipodi:docname="menu.svg"
   xml:space="preserve"
   style="enable-background:new 0 0 92.833 92.833;"
   viewBox="0 0 100 100"
   height="35px"
   width="45px"
   y="0px"
   x="0px"
   id="Capa_1"
   version="1.1"><metadata
   id="metadata404"><rdf:RDF><cc:Work
       rdf:about=""><dc:format>image/svg+xml</dc:format><dc:type
         rdf:resource="http://purl.org/dc/dcmitype/StillImage" /><dc:title></dc:title></cc:Work></rdf:RDF></metadata><sodipodi:namedview
   inkscape:current-layer="g369"
   inkscape:window-maximized="0"
   inkscape:window-y="0"
   inkscape:window-x="0"
   inkscape:cy="18.727673"
   inkscape:cx="24.071868"
   inkscape:zoom="16.663969"
   showgrid="true"
   id="namedview402"
   inkscape:window-height="900"
   inkscape:window-width="1440"
   inkscape:pageshadow="2"
   inkscape:pageopacity="0"
   guidetolerance="10"
   gridtolerance="10"
   objecttolerance="10"
   borderopacity="1"
   inkscape:document-rotation="0"
   bordercolor="#666666"
   pagecolor="#ffffff"><inkscape:grid
     id="grid406"
     type="xygrid" /></sodipodi:namedview>
	<defs
   id="defs359">
		<linearGradient
   y2="0"
   y1="1"
   x2="1"
   x1="0"
   id="Gradient2">
        	<stop
   id="stop352"
   stop-color="#e68e5d"
   offset="0%" />
			<stop
   id="stop354"
   stop-color="#dc3392"
   offset="100%" />
      	</linearGradient>
		<style
   id="style357"
   type="text/css"><![CDATA[
        	#Capa_1 { fill: url(#Gradient2);
      		]]>
		</style>
 	 
		
		
		
	<linearGradient
   gradientUnits="userSpaceOnUse"
   y2="45.846455"
   x2="92.32769"
   y1="45.846455"
   x1="-0.40342155"
   id="linearGradient1254"
   xlink:href="#Gradient2"
   inkscape:collect="always" /></defs>
	<g
   transform="matrix(1.3945658,0,0,1,-14.144255,4.6086521)"
   id="g369">
	<g
   style="fill-opacity:1.0;fill:url(#linearGradient1254)"
   id="g1246"><path
     style="opacity:1;stroke-width:0.943225;stop-opacity:1;fill-opacity:1.0;fill:url(#linearGradient1254)"
     inkscape:connector-curvature="0"
     id="path361"
     d="M 89.152912,-1.1395909 H 2.5873059 c -1.64888775,0 -2.99072745,1.20121303 -2.99072745,2.677295 V 13.437388 c 0,1.476082 1.3418397,2.677295 2.99072745,2.677295 H 89.151915 c 1.64789,0 2.990727,-1.201213 2.990727,-2.677295 V 1.5377041 c 9.97e-4,-1.47608197 -1.340843,-2.677295 -2.98973,-2.677295 z" /><path
     style="opacity:1;stroke-width:0.941139;stop-opacity:1;fill-opacity:1.0;fill:url(#linearGradient1254)"
     inkscape:connector-curvature="0"
     id="path363"
     d="M 89.160728,36.75 H 2.9775161 C 1.3359122,36.75 0,37.951213 0,39.427295 v 11.899684 c 0,1.476082 1.3359122,2.677295 2.9775161,2.677295 H 89.159735 c 1.640612,0 2.977517,-1.201213 2.977517,-2.677295 V 39.427295 C 92.138244,37.951213 90.802332,36.75 89.160728,36.75 Z" /><path
     style="opacity:1;stroke-width:0.942057;stop-opacity:1;fill-opacity:1.0;fill:url(#linearGradient1254)"
     inkscape:connector-curvature="0"
     id="path365"
     d="M 89.348027,75.562804 H 3.0737904 c -1.6433379,0 -2.98066113,1.202286 -2.98066113,2.679687 V 90.15281 c 0,1.477402 1.33732323,2.679689 2.98066113,2.679689 H 89.347032 c 1.642345,0 2.98066,-1.202287 2.98066,-2.679689 V 78.242491 c 9.91e-4,-1.478293 -1.336328,-2.679687 -2.979665,-2.679687 z"
     inkscape:transform-center-x="-0.17145632"
     inkscape:transform-center-y="-2.7433011" /></g>
</g>
<g
   transform="translate(0,-0.36764707)"
   id="g371">
</g>
<g
   transform="translate(0,-0.36764707)"
   id="g373">
</g>
<g
   transform="translate(0,-0.36764707)"
   id="g375">
</g>
<g
   transform="translate(0,-0.36764707)"
   id="g377">
</g>
<g
   transform="translate(0,-0.36764707)"
   id="g379">
</g>
<g
   transform="translate(0,-0.36764707)"
   id="g381">
</g>
<g
   transform="translate(0,-0.36764707)"
   id="g383">
</g>
<g
   transform="translate(0,-0.36764707)"
   id="g385">
</g>
<g
   transform="translate(0,-0.36764707)"
   id="g387">
</g>
<g
   transform="translate(0,-0.36764707)"
   id="g389">
</g>
<g
   transform="translate(0,-0.36764707)"
   id="g391">
</g>
<g
   transform="translate(0,-0.36764707)"
   id="g393">
</g>
<g
   transform="translate(0,-0.36764707)"
   id="g395">
</g>
<g
   transform="translate(0,-0.36764707)"
   id="g397">
</g>
<g
   transform="translate(0,-0.36764707)"
   id="g399">
</g>
</svg>
