<?xml version="1.0" standalone="no"?>
<!DOCTYPE svg PUBLIC "-//W3C//DTD SVG 20010904//EN"
 "http://www.w3.org/TR/2001/REC-SVG-20010904/DTD/svg10.dtd">
<svg version="1.0" xmlns="http://www.w3.org/2000/svg"
 width="700.000000pt" height="700.000000pt" viewBox="0 0 700.000000 700.000000"
 preserveAspectRatio="xMidYMid meet">
<metadata>
Created by potrace 1.11, written by Peter Selinger 2001-2013
</metadata>
<g transform="translate(0.000000,700.000000) scale(0.100000,-0.100000)"
fill="#000000" stroke="none">
<path d="M263 6986 c-99 -31 -169 -92 -221 -189 l-27 -52 -3 -487 -3 -488
3271 0 3270 0 0 -910 0 -910 -1360 0 -1360 0 -32 -29 -33 -29 0 -302 0 -302
33 -29 c32 -28 34 -29 147 -29 l115 0 0 -215 0 -215 -115 0 c-113 0 -115 -1
-147 -29 l-33 -29 0 -302 0 -302 33 -29 c32 -28 34 -29 147 -29 108 0 115 -1
115 -20 0 -20 -7 -20 -2031 -20 l-2030 0 3 -298 3 -297 33 -67 c53 -108 148
-179 268 -198 35 -6 495 -10 1137 -10 l1077 0 0 -289 0 -289 -247 -4 c-279 -4
-289 -6 -367 -78 -78 -72 -90 -110 -94 -291 -4 -152 -3 -156 19 -182 l24 -26
1635 -2 c1235 -1 1641 1 1658 10 31 16 34 40 30 213 -3 148 -4 155 -33 206
-32 59 -66 91 -129 125 -39 21 -56 22 -288 25 l-248 3 0 170 0 169 1044 0
c1036 0 1043 0 1069 20 32 25 47 75 47 156 l0 61 54 11 c122 25 234 118 276
229 l21 56 2 2637 2 2636 -29 59 c-36 73 -104 140 -176 174 l-55 26 -3215 2
c-2639 1 -3223 -1 -3257 -11z m1216 -422 c88 -112 20 -281 -127 -315 -31 -7
-35 -4 -59 32 -66 100 -27 241 82 290 55 25 80 24 104 -7z m3221 -2889 c59
-31 69 -107 21 -156 l-29 -29 -292 0 -292 0 -29 29 c-48 49 -35 137 25 161 11
5 144 9 294 9 225 1 278 -2 302 -14z m546 -17 c40 -39 38 -102 -5 -140 -30
-27 -35 -28 -141 -28 -125 0 -153 9 -175 57 -21 45 -12 85 27 119 31 25 35 26
150 22 112 -3 119 -4 144 -30z m1053 18 c53 -28 67 -106 27 -153 l-24 -28
-397 -3 c-352 -2 -400 -1 -422 13 -64 42 -57 148 12 175 11 5 190 9 398 9 309
1 383 -2 406 -13z m251 -661 l0 -215 -105 0 -105 0 0 215 0 215 105 0 105 0 0
-215z m-1850 -490 c59 -31 69 -107 21 -156 l-29 -29 -292 0 -292 0 -29 29
c-48 49 -35 137 25 161 11 5 144 9 294 9 225 1 278 -2 302 -14z m546 -17 c40
-39 38 -102 -5 -140 -30 -27 -35 -28 -141 -28 -121 0 -149 8 -174 52 -25 41
-14 89 26 123 31 26 34 27 150 23 112 -3 119 -4 144 -30z m1053 18 c53 -28 67
-106 27 -153 l-24 -28 -397 -3 c-352 -2 -400 -1 -422 13 -64 42 -57 148 12
175 11 5 190 9 398 9 309 1 383 -2 406 -13z m251 -466 c0 -20 -5 -21 -102 -18
-89 3 -103 5 -106 21 -3 15 7 17 102 17 100 0 106 -1 106 -20z m-1850 -685
c59 -31 69 -107 21 -156 l-29 -29 -292 0 -292 0 -29 29 c-48 49 -35 137 25
161 11 5 144 9 294 9 225 1 278 -2 302 -14z m546 -17 c40 -39 38 -102 -5 -140
-30 -27 -35 -28 -141 -28 -121 0 -149 8 -174 52 -25 41 -14 89 26 123 31 26
34 27 150 23 112 -3 119 -4 144 -30z m1053 18 c53 -28 67 -106 27 -153 l-24
-28 -401 -3 -400 -3 -31 29 c-25 22 -32 36 -32 65 0 43 23 84 55 97 12 5 192
9 400 9 309 1 383 -2 406 -13z"/>
<path d="M755 5310 c-36 -15 -383 -373 -390 -403 -4 -15 -2 -40 4 -56 7 -15
96 -112 200 -214 182 -182 188 -187 229 -187 71 0 120 65 101 135 -6 19 -57
78 -144 165 l-135 135 135 135 c84 85 138 147 143 165 24 86 -60 160 -143 125z"/>
<path d="M1270 5293 c-23 -22 -58 -101 -165 -375 -74 -190 -135 -356 -135
-368 0 -86 121 -135 177 -72 31 34 293 699 293 743 0 22 -10 41 -34 65 -44 44
-92 47 -136 7z"/>
<path d="M1533 5301 c-37 -23 -54 -71 -41 -116 5 -18 59 -80 143 -165 l135
-135 -135 -135 c-87 -87 -138 -146 -144 -165 -19 -70 30 -135 101 -135 41 0
47 5 229 187 104 102 193 199 200 214 6 16 8 41 4 56 -4 18 -75 97 -194 216
-169 170 -191 189 -226 193 -29 4 -49 -1 -72 -15z"/>
<path d="M2280 4997 c-14 -7 -33 -29 -43 -50 -16 -31 -17 -42 -7 -72 6 -19 23
-44 37 -55 24 -19 40 -20 245 -20 l220 0 34 34 c26 26 34 42 34 71 0 29 -8 45
-34 71 l-34 34 -213 0 c-150 0 -221 -4 -239 -13z"/>
<path d="M3048 4994 c-35 -18 -48 -43 -48 -89 0 -47 13 -71 50 -90 25 -13 172
-15 1171 -15 l1141 0 34 34 c47 47 47 95 0 142 l-34 34 -1143 0 c-990 -1
-1148 -3 -1171 -16z"/>
<path d="M2283 4534 c-39 -19 -67 -74 -58 -114 8 -38 48 -76 86 -84 18 -3 200
-6 406 -6 401 0 423 2 457 51 26 38 21 93 -13 131 l-29 33 -409 2 c-356 3
-412 1 -440 -13z"/>
<path d="M3393 4534 c-39 -19 -67 -74 -58 -113 3 -16 20 -41 36 -57 l30 -29
195 0 196 0 29 33 c42 46 41 107 -2 148 l-30 29 -182 3 c-151 2 -187 -1 -214
-14z"/>
<path d="M4043 4535 c-34 -14 -63 -59 -63 -97 0 -41 36 -86 77 -97 24 -7 202
-11 486 -11 480 0 496 1 531 51 9 13 16 39 16 59 0 45 -23 78 -66 96 -49 20
-934 20 -981 -1z"/>
<path d="M483 4030 c-13 -5 -32 -24 -43 -42 -28 -45 -21 -94 20 -130 l30 -28
395 0 394 0 26 23 c53 46 49 133 -8 167 -30 19 -52 20 -412 19 -209 0 -390 -4
-402 -9z"/>
<path d="M1585 4031 c-39 -16 -60 -51 -60 -98 0 -38 5 -49 33 -74 l32 -29 664
0 664 0 31 31 c45 44 44 98 -3 145 l-34 34 -653 -1 c-360 0 -663 -4 -674 -8z"/>
<path d="M510 3593 c-34 -6 -78 -50 -85 -83 -4 -16 0 -44 9 -64 24 -57 57 -66
248 -66 194 0 224 9 247 76 17 48 4 84 -42 118 -26 19 -43 21 -190 23 -89 0
-173 -1 -187 -4z"/>
<path d="M1180 3590 c-80 -19 -107 -110 -51 -172 l29 -33 497 0 497 0 29 33
c57 64 29 153 -56 172 -49 12 -896 11 -945 0z"/>
<path d="M2470 3590 c-96 -24 -113 -153 -25 -195 45 -21 234 -21 275 0 58 30
75 86 45 145 -8 16 -25 35 -38 41 -27 15 -209 21 -257 9z"/>
<path d="M2986 3590 c-68 -21 -99 -85 -70 -145 27 -58 58 -65 269 -65 199 0
227 6 259 52 31 43 11 123 -37 150 -27 15 -377 22 -421 8z"/>
<path d="M461 3124 c-38 -32 -49 -80 -27 -123 32 -60 44 -62 382 -59 l306 3
29 33 c31 35 37 73 17 117 -24 52 -41 55 -372 55 l-304 0 -31 -26z"/>
<path d="M1331 3124 c-38 -32 -49 -80 -27 -123 32 -60 37 -61 445 -61 206 0
381 4 394 9 72 28 92 118 38 172 l-29 29 -395 0 -395 0 -31 -26z"/>
<path d="M2402 3125 c-38 -32 -48 -72 -28 -118 28 -69 18 -68 572 -65 l496 3
29 33 c41 45 41 102 0 143 l-29 29 -505 0 -505 0 -30 -25z"/>
</g>
</svg>
